<svg xmlns="http://www.w3.org/2000/svg" xmlns:xlink="http://www.w3.org/1999/xlink" width="3456" zoomAndPan="magnify" viewBox="0 0 2592 2592.000001" height="3456" preserveAspectRatio="xMidYMid meet" version="1.0"><defs><g/><clipPath id="f86db37471"><path d="M 0.5 0 L 2591.5 0 L 2591.5 2591 L 0.5 2591 Z M 0.5 0 " clip-rule="nonzero"/></clipPath><clipPath id="3ce187719e"><path d="M 0.601562 217 L 533 217 L 533 358.21875 L 0.601562 358.21875 Z M 0.601562 217 " clip-rule="nonzero"/></clipPath><clipPath id="1e80a39ad6"><rect x="0" width="533" y="0" height="142"/></clipPath><clipPath id="44384d1a67"><rect x="0" width="1109" y="0" height="359"/></clipPath></defs><g clip-path="url(#f86db37471)"><path fill="#ffffff" d="M 0.5 0 L 2591.5 0 L 2591.5 2591 L 0.5 2591 Z M 0.5 0 " fill-opacity="1" fill-rule="nonzero"/><path fill="#ffea0a" d="M 0.5 0 L 2591.5 0 L 2591.5 2591 L 0.5 2591 Z M 0.5 0 " fill-opacity="1" fill-rule="nonzero"/></g><g transform="matrix(1, 0, 0, 1, 259, 1978)"><g clip-path="url(#44384d1a67)"><g fill="#000000" fill-opacity="1"><g transform="translate(0.599835, 142.090654)"><g><path d="M 79.109375 -26.953125 C 83.648438 -26.953125 88.0625 -27.640625 92.34375 -29.015625 C 96.625 -30.390625 99.769531 -31.707031 101.78125 -32.96875 L 104.796875 -35.03125 L 117.46875 -9.671875 C 117.050781 -9.347656 116.472656 -8.921875 115.734375 -8.390625 C 114.992188 -7.867188 113.273438 -6.894531 110.578125 -5.46875 C 107.878906 -4.039062 105 -2.796875 101.9375 -1.734375 C 98.875 -0.679688 94.859375 0.265625 89.890625 1.109375 C 84.921875 1.953125 79.796875 2.375 74.515625 2.375 C 62.359375 2.375 50.835938 -0.609375 39.953125 -6.578125 C 29.066406 -12.546875 20.289062 -20.757812 13.625 -31.21875 C 6.96875 -41.6875 3.640625 -53 3.640625 -65.15625 C 3.640625 -74.351562 5.59375 -83.175781 9.5 -91.625 C 13.414062 -100.082031 18.625 -107.320312 25.125 -113.34375 C 31.625 -119.375 39.207031 -124.1875 47.875 -127.78125 C 56.539062 -131.375 65.421875 -133.171875 74.515625 -133.171875 C 82.960938 -133.171875 90.753906 -132.164062 97.890625 -130.15625 C 105.023438 -128.144531 110.070312 -126.132812 113.03125 -124.125 L 117.46875 -121.125 L 104.796875 -95.75 C 104.046875 -96.382812 102.929688 -97.148438 101.453125 -98.046875 C 99.972656 -98.953125 97.015625 -100.144531 92.578125 -101.625 C 88.140625 -103.101562 83.648438 -103.84375 79.109375 -103.84375 C 71.921875 -103.84375 65.472656 -102.675781 59.765625 -100.34375 C 54.054688 -98.019531 49.535156 -94.957031 46.203125 -91.15625 C 42.878906 -87.351562 40.34375 -83.257812 38.59375 -78.875 C 36.851562 -74.488281 35.984375 -70.019531 35.984375 -65.46875 C 35.984375 -55.539062 39.707031 -46.640625 47.15625 -38.765625 C 54.613281 -30.890625 65.265625 -26.953125 79.109375 -26.953125 Z M 79.109375 -26.953125 "/></g></g></g><g fill="#000000" fill-opacity="1"><g transform="translate(119.970453, 142.090654)"><g><path d="M 3.640625 -65.46875 C 3.640625 -84.382812 10.085938 -100.394531 22.984375 -113.5 C 35.878906 -126.613281 51.414062 -133.171875 69.59375 -133.171875 C 87.875 -133.171875 103.410156 -126.644531 116.203125 -113.59375 C 128.992188 -100.539062 135.390625 -84.5 135.390625 -65.46875 C 135.390625 -46.34375 129.097656 -30.253906 116.515625 -17.203125 C 103.941406 -4.148438 88.300781 2.375 69.59375 2.375 C 50.46875 2.375 34.691406 -4.097656 22.265625 -17.046875 C 9.847656 -29.992188 3.640625 -46.132812 3.640625 -65.46875 Z M 35.828125 -65.46875 C 35.828125 -58.601562 36.882812 -52.34375 39 -46.6875 C 41.113281 -41.03125 44.8125 -36.242188 50.09375 -32.328125 C 55.375 -28.421875 61.875 -26.46875 69.59375 -26.46875 C 80.6875 -26.46875 89.0625 -30.269531 94.71875 -37.875 C 100.375 -45.488281 103.203125 -54.6875 103.203125 -65.46875 C 103.203125 -76.144531 100.320312 -85.3125 94.5625 -92.96875 C 88.800781 -100.632812 80.476562 -104.46875 69.59375 -104.46875 C 58.8125 -104.46875 50.488281 -100.632812 44.625 -92.96875 C 38.757812 -85.3125 35.828125 -76.144531 35.828125 -65.46875 Z M 35.828125 -65.46875 "/></g></g></g><g fill="#000000" fill-opacity="1"><g transform="translate(258.9984, 142.090654)"><g><path d="M 39.3125 -130.78125 L 39.3125 -26.15625 L 84.34375 -26.15625 L 84.34375 0 L 9.515625 0 L 9.515625 -130.78125 Z M 39.3125 -130.78125 "/></g></g></g><g fill="#000000" fill-opacity="1"><g transform="translate(348.566016, 142.090654)"><g><path d="M 3.640625 -65.46875 C 3.640625 -84.382812 10.085938 -100.394531 22.984375 -113.5 C 35.878906 -126.613281 51.414062 -133.171875 69.59375 -133.171875 C 87.875 -133.171875 103.410156 -126.644531 116.203125 -113.59375 C 128.992188 -100.539062 135.390625 -84.5 135.390625 -65.46875 C 135.390625 -46.34375 129.097656 -30.253906 116.515625 -17.203125 C 103.941406 -4.148438 88.300781 2.375 69.59375 2.375 C 50.46875 2.375 34.691406 -4.097656 22.265625 -17.046875 C 9.847656 -29.992188 3.640625 -46.132812 3.640625 -65.46875 Z M 35.828125 -65.46875 C 35.828125 -58.601562 36.882812 -52.34375 39 -46.6875 C 41.113281 -41.03125 44.8125 -36.242188 50.09375 -32.328125 C 55.375 -28.421875 61.875 -26.46875 69.59375 -26.46875 C 80.6875 -26.46875 89.0625 -30.269531 94.71875 -37.875 C 100.375 -45.488281 103.203125 -54.6875 103.203125 -65.46875 C 103.203125 -76.144531 100.320312 -85.3125 94.5625 -92.96875 C 88.800781 -100.632812 80.476562 -104.46875 69.59375 -104.46875 C 58.8125 -104.46875 50.488281 -100.632812 44.625 -92.96875 C 38.757812 -85.3125 35.828125 -76.144531 35.828125 -65.46875 Z M 35.828125 -65.46875 "/></g></g></g><g fill="#000000" fill-opacity="1"><g transform="translate(487.593964, 142.090654)"><g><path d="M 9.515625 -130.78125 L 56.28125 -130.78125 C 68.851562 -130.78125 79.101562 -127.425781 87.03125 -120.71875 C 94.957031 -114.007812 98.921875 -104.421875 98.921875 -91.953125 C 98.921875 -82.328125 96.515625 -74.265625 91.703125 -67.765625 C 86.898438 -61.265625 80.375 -56.695312 72.125 -54.0625 L 117.15625 0 L 79.265625 0 L 39.3125 -51.6875 L 39.3125 0 L 9.515625 0 Z M 39.3125 -72.765625 L 42.796875 -72.765625 C 45.546875 -72.765625 47.867188 -72.816406 49.765625 -72.921875 C 51.671875 -73.023438 53.835938 -73.394531 56.265625 -74.03125 C 58.703125 -74.664062 60.660156 -75.5625 62.140625 -76.71875 C 63.617188 -77.882812 64.882812 -79.578125 65.9375 -81.796875 C 67 -84.015625 67.53125 -86.707031 67.53125 -89.875 C 67.53125 -93.050781 67 -95.75 65.9375 -97.96875 C 64.882812 -100.1875 63.617188 -101.878906 62.140625 -103.046875 C 60.660156 -104.210938 58.703125 -105.109375 56.265625 -105.734375 C 53.835938 -106.367188 51.671875 -106.738281 49.765625 -106.84375 C 47.867188 -106.957031 45.546875 -107.015625 42.796875 -107.015625 L 39.3125 -107.015625 Z M 39.3125 -72.765625 "/></g></g></g><g fill="#000000" fill-opacity="1"><g transform="translate(601.0991, 142.090654)"><g/></g></g><g fill="#000000" fill-opacity="1"><g transform="translate(639.30403, 142.090654)"><g><path d="M 79.109375 -26.953125 C 83.648438 -26.953125 88.0625 -27.640625 92.34375 -29.015625 C 96.625 -30.390625 99.769531 -31.707031 101.78125 -32.96875 L 104.796875 -35.03125 L 117.46875 -9.671875 C 117.050781 -9.347656 116.472656 -8.921875 115.734375 -8.390625 C 114.992188 -7.867188 113.273438 -6.894531 110.578125 -5.46875 C 107.878906 -4.039062 105 -2.796875 101.9375 -1.734375 C 98.875 -0.679688 94.859375 0.265625 89.890625 1.109375 C 84.921875 1.953125 79.796875 2.375 74.515625 2.375 C 62.359375 2.375 50.835938 -0.609375 39.953125 -6.578125 C 29.066406 -12.546875 20.289062 -20.757812 13.625 -31.21875 C 6.96875 -41.6875 3.640625 -53 3.640625 -65.15625 C 3.640625 -74.351562 5.59375 -83.175781 9.5 -91.625 C 13.414062 -100.082031 18.625 -107.320312 25.125 -113.34375 C 31.625 -119.375 39.207031 -124.1875 47.875 -127.78125 C 56.539062 -131.375 65.421875 -133.171875 74.515625 -133.171875 C 82.960938 -133.171875 90.753906 -132.164062 97.890625 -130.15625 C 105.023438 -128.144531 110.070312 -126.132812 113.03125 -124.125 L 117.46875 -121.125 L 104.796875 -95.75 C 104.046875 -96.382812 102.929688 -97.148438 101.453125 -98.046875 C 99.972656 -98.953125 97.015625 -100.144531 92.578125 -101.625 C 88.140625 -103.101562 83.648438 -103.84375 79.109375 -103.84375 C 71.921875 -103.84375 65.472656 -102.675781 59.765625 -100.34375 C 54.054688 -98.019531 49.535156 -94.957031 46.203125 -91.15625 C 42.878906 -87.351562 40.34375 -83.257812 38.59375 -78.875 C 36.851562 -74.488281 35.984375 -70.019531 35.984375 -65.46875 C 35.984375 -55.539062 39.707031 -46.640625 47.15625 -38.765625 C 54.613281 -30.890625 65.265625 -26.953125 79.109375 -26.953125 Z M 79.109375 -26.953125 "/></g></g></g><g fill="#000000" fill-opacity="1"><g transform="translate(758.674649, 142.090654)"><g><path d="M 3.640625 -65.46875 C 3.640625 -84.382812 10.085938 -100.394531 22.984375 -113.5 C 35.878906 -126.613281 51.414062 -133.171875 69.59375 -133.171875 C 87.875 -133.171875 103.410156 -126.644531 116.203125 -113.59375 C 128.992188 -100.539062 135.390625 -84.5 135.390625 -65.46875 C 135.390625 -46.34375 129.097656 -30.253906 116.515625 -17.203125 C 103.941406 -4.148438 88.300781 2.375 69.59375 2.375 C 50.46875 2.375 34.691406 -4.097656 22.265625 -17.046875 C 9.847656 -29.992188 3.640625 -46.132812 3.640625 -65.46875 Z M 35.828125 -65.46875 C 35.828125 -58.601562 36.882812 -52.34375 39 -46.6875 C 41.113281 -41.03125 44.8125 -36.242188 50.09375 -32.328125 C 55.375 -28.421875 61.875 -26.46875 69.59375 -26.46875 C 80.6875 -26.46875 89.0625 -30.269531 94.71875 -37.875 C 100.375 -45.488281 103.203125 -54.6875 103.203125 -65.46875 C 103.203125 -76.144531 100.320312 -85.3125 94.5625 -92.96875 C 88.800781 -100.632812 80.476562 -104.46875 69.59375 -104.46875 C 58.8125 -104.46875 50.488281 -100.632812 44.625 -92.96875 C 38.757812 -85.3125 35.828125 -76.144531 35.828125 -65.46875 Z M 35.828125 -65.46875 "/></g></g></g><g fill="#000000" fill-opacity="1"><g transform="translate(897.702633, 142.090654)"><g><path d="M 9.515625 -130.78125 L 47.40625 -130.78125 C 65.582031 -130.78125 81.113281 -124.570312 94 -112.15625 C 106.894531 -99.738281 113.34375 -84.175781 113.34375 -65.46875 C 113.34375 -46.65625 106.921875 -31.039062 94.078125 -18.625 C 81.242188 -6.207031 65.6875 0 47.40625 0 L 9.515625 0 Z M 39.3125 -26.640625 L 43.90625 -26.640625 C 54.789062 -26.640625 63.695312 -30.3125 70.625 -37.65625 C 77.550781 -45 81.066406 -54.21875 81.171875 -65.3125 C 81.171875 -76.40625 77.707031 -85.648438 70.78125 -93.046875 C 63.863281 -100.453125 54.90625 -104.15625 43.90625 -104.15625 L 39.3125 -104.15625 Z M 39.3125 -26.640625 "/></g></g></g><g fill="#000000" fill-opacity="1"><g transform="translate(1014.695337, 142.090654)"><g><path d="M 84.34375 -130.78125 L 84.34375 -104.625 L 39.3125 -104.625 L 39.3125 -78.625 L 82.4375 -78.625 L 82.4375 -52.46875 L 39.3125 -52.46875 L 39.3125 -26.15625 L 84.34375 -26.15625 L 84.34375 0 L 9.515625 0 L 9.515625 -130.78125 Z M 84.34375 -130.78125 "/></g></g></g><g clip-path="url(#3ce187719e)"><g transform="matrix(1, 0, 0, 1, 0, 217)"><g clip-path="url(#1e80a39ad6)"><g fill="#000000" fill-opacity="1"><g transform="translate(0.599835, 110.389884)"><g><path d="M 55.640625 -12.296875 L 44.890625 -12.296875 L 41.484375 -0.546875 C 41.265625 0.328125 40.71875 0.765625 39.84375 0.765625 L 34.46875 0.765625 C 33.4375 0.765625 33.101562 0.328125 33.46875 -0.546875 L 36.765625 -12.296875 L 22.5 -12.296875 L 19.09375 -0.546875 C 18.875 0.328125 18.289062 0.765625 17.34375 0.765625 L 11.96875 0.765625 C 11.082031 0.765625 10.75 0.328125 10.96875 -0.546875 L 14.375 -12.296875 L 5.59375 -12.296875 C 4.644531 -12.296875 4.171875 -12.734375 4.171875 -13.609375 L 4.171875 -17.671875 C 4.171875 -18.546875 4.644531 -18.984375 5.59375 -18.984375 L 16.25 -18.984375 L 20.1875 -32.8125 L 11.53125 -32.8125 C 10.644531 -32.8125 10.203125 -33.285156 10.203125 -34.234375 L 10.203125 -38.1875 C 10.203125 -39.144531 10.644531 -39.625 11.53125 -39.625 L 22.171875 -39.625 L 25.6875 -51.578125 C 25.90625 -52.535156 26.488281 -53.015625 27.4375 -53.015625 L 32.921875 -53.015625 C 33.722656 -53.015625 34.015625 -52.535156 33.796875 -51.578125 L 30.296875 -39.625 L 44.671875 -39.625 L 48.1875 -51.578125 C 48.40625 -52.535156 48.988281 -53.015625 49.9375 -53.015625 L 55.3125 -53.015625 C 56.257812 -53.015625 56.550781 -52.535156 56.1875 -51.578125 L 52.796875 -39.625 L 61.5625 -39.625 C 62.519531 -39.625 63 -39.144531 63 -38.1875 L 63 -34.234375 C 63 -33.285156 62.519531 -32.8125 61.5625 -32.8125 L 50.8125 -32.8125 L 46.75 -18.984375 L 55.640625 -18.984375 C 56.515625 -18.984375 56.953125 -18.546875 56.953125 -17.671875 L 56.953125 -13.609375 C 56.953125 -12.734375 56.515625 -12.296875 55.640625 -12.296875 Z M 38.625 -18.984375 L 42.6875 -32.8125 L 28.3125 -32.8125 L 24.359375 -18.984375 Z M 38.625 -18.984375 "/></g></g></g><g fill="#000000" fill-opacity="1"><g transform="translate(67.760026, 110.389884)"><g><path d="M 36.984375 0 L 6.6875 0 C 5.738281 0 5.265625 -0.4375 5.265625 -1.3125 L 5.265625 -6.921875 C 5.265625 -7.796875 5.738281 -8.234375 6.6875 -8.234375 L 15.03125 -8.234375 L 15.03125 -70.5625 L 6.6875 -70.5625 C 5.738281 -70.5625 5.265625 -71.003906 5.265625 -71.890625 L 5.265625 -77.484375 C 5.265625 -78.359375 5.738281 -78.796875 6.6875 -78.796875 L 63 -78.796875 C 63.945312 -78.796875 64.421875 -78.359375 64.421875 -77.484375 L 64.421875 -59.8125 C 64.421875 -58.863281 63.945312 -58.390625 63 -58.390625 L 57.0625 -58.390625 C 56.1875 -58.390625 55.75 -58.863281 55.75 -59.8125 L 55.75 -70.5625 L 24.578125 -70.5625 L 24.578125 -43.34375 L 50.375 -43.34375 C 51.320312 -43.34375 51.796875 -42.90625 51.796875 -42.03125 L 51.796875 -36.4375 C 51.796875 -35.5625 51.320312 -35.125 50.375 -35.125 L 24.578125 -35.125 L 24.578125 -8.234375 L 36.984375 -8.234375 C 37.859375 -8.234375 38.296875 -7.796875 38.296875 -6.921875 L 38.296875 -1.3125 C 38.296875 -0.4375 37.859375 0 36.984375 0 Z M 36.984375 0 "/></g></g></g><g fill="#000000" fill-opacity="1"><g transform="translate(136.237038, 110.389884)"><g><path d="M 36.984375 0 L 6.6875 0 C 5.738281 0 5.265625 -0.4375 5.265625 -1.3125 L 5.265625 -6.921875 C 5.265625 -7.796875 5.738281 -8.234375 6.6875 -8.234375 L 15.03125 -8.234375 L 15.03125 -70.5625 L 6.6875 -70.5625 C 5.738281 -70.5625 5.265625 -71.003906 5.265625 -71.890625 L 5.265625 -77.484375 C 5.265625 -78.359375 5.738281 -78.796875 6.6875 -78.796875 L 63 -78.796875 C 63.945312 -78.796875 64.421875 -78.359375 64.421875 -77.484375 L 64.421875 -59.8125 C 64.421875 -58.863281 63.945312 -58.390625 63 -58.390625 L 57.0625 -58.390625 C 56.1875 -58.390625 55.75 -58.863281 55.75 -59.8125 L 55.75 -70.5625 L 24.578125 -70.5625 L 24.578125 -43.34375 L 50.375 -43.34375 C 51.320312 -43.34375 51.796875 -42.90625 51.796875 -42.03125 L 51.796875 -36.4375 C 51.796875 -35.5625 51.320312 -35.125 50.375 -35.125 L 24.578125 -35.125 L 24.578125 -8.234375 L 36.984375 -8.234375 C 37.859375 -8.234375 38.296875 -7.796875 38.296875 -6.921875 L 38.296875 -1.3125 C 38.296875 -0.4375 37.859375 0 36.984375 0 Z M 36.984375 0 "/></g></g></g><g fill="#000000" fill-opacity="1"><g transform="translate(204.714039, 110.389884)"><g><path d="M 64.96875 0 L 6.6875 0 C 5.738281 0 5.265625 -0.4375 5.265625 -1.3125 L 5.265625 -6.921875 C 5.265625 -7.796875 5.738281 -8.234375 6.6875 -8.234375 L 15.03125 -8.234375 L 15.03125 -70.5625 L 6.6875 -70.5625 C 5.738281 -70.5625 5.265625 -71.003906 5.265625 -71.890625 L 5.265625 -77.484375 C 5.265625 -78.359375 5.738281 -78.796875 6.6875 -78.796875 L 64.96875 -78.796875 C 65.925781 -78.796875 66.40625 -78.359375 66.40625 -77.484375 L 66.40625 -59.8125 C 66.40625 -58.863281 65.925781 -58.390625 64.96875 -58.390625 L 59.046875 -58.390625 C 58.171875 -58.390625 57.734375 -58.863281 57.734375 -59.8125 L 57.734375 -70.5625 L 24.578125 -70.5625 L 24.578125 -43.34375 L 52.34375 -43.34375 C 53.300781 -43.34375 53.78125 -42.90625 53.78125 -42.03125 L 53.78125 -36.4375 C 53.78125 -35.5625 53.300781 -35.125 52.34375 -35.125 L 24.578125 -35.125 L 24.578125 -8.234375 L 57.625 -8.234375 L 57.625 -18.984375 C 57.625 -19.859375 58.097656 -20.296875 59.046875 -20.296875 L 64.96875 -20.296875 C 65.925781 -20.296875 66.40625 -19.859375 66.40625 -18.984375 L 66.40625 -1.3125 C 66.40625 -0.4375 65.925781 0 64.96875 0 Z M 64.96875 0 "/></g></g></g><g fill="#000000" fill-opacity="1"><g transform="translate(275.385857, 110.389884)"><g><path d="M 84.28125 0 L 59.484375 0 C 58.609375 0 58.171875 -0.4375 58.171875 -1.3125 L 58.171875 -6.921875 C 58.171875 -7.796875 58.609375 -8.234375 59.484375 -8.234375 L 67.171875 -8.234375 L 60.03125 -27.21875 L 29.40625 -27.21875 L 22.28125 -8.234375 L 29.96875 -8.234375 C 30.84375 -8.234375 31.28125 -7.796875 31.28125 -6.921875 L 31.28125 -1.3125 C 31.28125 -0.4375 30.84375 0 29.96875 0 L 5.265625 0 C 4.390625 0 3.953125 -0.4375 3.953125 -1.3125 L 3.953125 -6.921875 C 3.953125 -7.796875 4.390625 -8.234375 5.265625 -8.234375 L 12.625 -8.234375 L 36.21875 -70.5625 L 30.296875 -70.5625 C 29.335938 -70.5625 28.859375 -71.003906 28.859375 -71.890625 L 28.859375 -77.484375 C 28.859375 -78.359375 29.335938 -78.796875 30.296875 -78.796875 L 45.21875 -78.796875 C 46.96875 -78.796875 48.300781 -78.429688 49.21875 -77.703125 C 50.132812 -76.972656 50.921875 -75.765625 51.578125 -74.078125 L 76.828125 -8.234375 L 84.28125 -8.234375 C 85.164062 -8.234375 85.609375 -7.796875 85.609375 -6.921875 L 85.609375 -1.3125 C 85.609375 -0.4375 85.164062 0 84.28125 0 Z M 57.0625 -34.796875 L 44.890625 -67.390625 L 44.5625 -67.390625 L 32.265625 -34.796875 Z M 57.0625 -34.796875 "/></g></g></g><g fill="#000000" fill-opacity="1"><g transform="translate(367.676242, 110.389884)"><g><path d="M 59.203125 -10.375 C 53.609375 -2.945312 45.835938 0.765625 35.890625 0.765625 C 25.941406 0.765625 18.164062 -2.925781 12.5625 -10.3125 C 6.96875 -17.707031 4.171875 -27.40625 4.171875 -39.40625 C 4.171875 -51.40625 7.023438 -61.078125 12.734375 -68.421875 C 18.441406 -75.773438 26.160156 -79.453125 35.890625 -79.453125 C 45.617188 -79.453125 53.335938 -75.773438 59.046875 -68.421875 C 64.753906 -61.078125 67.609375 -51.421875 67.609375 -39.453125 C 67.609375 -27.492188 64.804688 -17.800781 59.203125 -10.375 Z M 20.078125 -16.34375 C 23.890625 -10.863281 29.160156 -8.125 35.890625 -8.125 C 42.617188 -8.125 47.882812 -10.847656 51.6875 -16.296875 C 55.5 -21.742188 57.40625 -29.40625 57.40625 -39.28125 C 57.40625 -49.164062 55.484375 -56.882812 51.640625 -62.4375 C 47.796875 -68 42.546875 -70.78125 35.890625 -70.78125 C 29.234375 -70.78125 23.984375 -68 20.140625 -62.4375 C 16.296875 -56.882812 14.375 -49.1875 14.375 -39.34375 C 14.375 -29.5 16.273438 -21.832031 20.078125 -16.34375 Z M 20.078125 -16.34375 "/></g></g></g><g fill="#000000" fill-opacity="1"><g transform="translate(439.445491, 110.389884)"><g><path d="M 84.28125 0 L 59.484375 0 C 58.609375 0 58.171875 -0.4375 58.171875 -1.3125 L 58.171875 -6.921875 C 58.171875 -7.796875 58.609375 -8.234375 59.484375 -8.234375 L 67.171875 -8.234375 L 60.03125 -27.21875 L 29.40625 -27.21875 L 22.28125 -8.234375 L 29.96875 -8.234375 C 30.84375 -8.234375 31.28125 -7.796875 31.28125 -6.921875 L 31.28125 -1.3125 C 31.28125 -0.4375 30.84375 0 29.96875 0 L 5.265625 0 C 4.390625 0 3.953125 -0.4375 3.953125 -1.3125 L 3.953125 -6.921875 C 3.953125 -7.796875 4.390625 -8.234375 5.265625 -8.234375 L 12.625 -8.234375 L 36.21875 -70.5625 L 30.296875 -70.5625 C 29.335938 -70.5625 28.859375 -71.003906 28.859375 -71.890625 L 28.859375 -77.484375 C 28.859375 -78.359375 29.335938 -78.796875 30.296875 -78.796875 L 45.21875 -78.796875 C 46.96875 -78.796875 48.300781 -78.429688 49.21875 -77.703125 C 50.132812 -76.972656 50.921875 -75.765625 51.578125 -74.078125 L 76.828125 -8.234375 L 84.28125 -8.234375 C 85.164062 -8.234375 85.609375 -7.796875 85.609375 -6.921875 L 85.609375 -1.3125 C 85.609375 -0.4375 85.164062 0 84.28125 0 Z M 57.0625 -34.796875 L 44.890625 -67.390625 L 44.5625 -67.390625 L 32.265625 -34.796875 Z M 57.0625 -34.796875 "/></g></g></g></g></g></g></g></g></svg>